<?xml version="1.0" standalone="no"?>
<!DOCTYPE svg PUBLIC "-//W3C//DTD SVG 20010904//EN"
 "http://www.w3.org/TR/2001/REC-SVG-20010904/DTD/svg10.dtd">
<svg version="1.0" xmlns="http://www.w3.org/2000/svg"
 width="999.000000pt" height="799.000000pt" viewBox="0 0 999.000000 799.000000"
 preserveAspectRatio="xMidYMid meet">
<metadata>
Created by potrace 1.16, written by Peter Selinger 2001-2019
</metadata>
<g transform="translate(0.000000,799.000000) scale(0.100000,-0.100000)"
fill="#000000" stroke="none">
<path d="M6898 7398 c-72 -59 -64 -194 17 -266 43 -39 211 -240 204 -245 -2
-2 -23 -9 -46 -15 -92 -27 -139 -142 -77 -191 36 -29 102 -28 139 1 15 12 35
39 45 60 l17 39 42 -94 c22 -52 41 -97 41 -100 0 -3 -28 -5 -62 -5 -35 0 -75
-5 -90 -11 -24 -9 -31 -7 -57 19 -56 57 -140 30 -161 -52 l-11 -40 -27 23
c-103 90 -102 89 -96 144 7 56 -15 158 -42 200 -31 47 -93 45 -119 -5 -36 -70
-15 -124 101 -255 74 -82 81 -94 63 -97 -12 -2 -31 -15 -42 -30 -47 -62 18
-117 123 -103 83 10 102 7 129 -19 l24 -24 -34 -17 c-86 -43 -105 -99 -46
-135 47 -29 93 -26 127 8 l28 29 35 -86 c19 -47 34 -87 33 -88 -1 -1 -19 3
-42 9 -55 15 -89 5 -104 -31 -13 -33 -3 -62 28 -80 12 -8 -18 -10 -105 -11
l-123 0 0 -175 0 -175 54 0 53 0 92 -562 c51 -310 95 -573 98 -585 l5 -23 499
0 c274 0 499 1 500 3 0 1 38 263 83 582 l82 580 47 3 47 3 0 175 0 174 -237 0
-238 1 81 39 c65 32 85 46 98 74 43 90 -4 174 -75 135 -18 -9 -19 -8 -10 8 33
56 37 57 75 28 22 -17 54 -29 80 -32 38 -5 48 -2 70 20 29 29 33 64 11 106
-16 32 -33 41 -78 41 l-31 0 39 40 c21 22 43 40 47 40 4 0 27 -14 51 -31 51
-36 103 -42 124 -13 18 23 11 88 -11 113 -23 25 -21 30 25 50 33 15 48 17 71
9 37 -13 116 -5 135 15 8 8 17 32 20 53 9 69 -43 112 -100 83 -32 -17 -77 -61
-77 -76 0 -7 -6 -13 -14 -13 -8 0 -16 -4 -18 -9 -1 -5 -28 -21 -57 -36 l-55
-27 -23 26 c-16 19 -23 40 -23 69 0 61 -28 112 -61 112 -21 -1 -29 6 -38 31
-20 54 -103 71 -173 35 l-37 -18 21 51 c11 28 21 52 22 53 1 1 20 -4 41 -12
60 -21 158 -19 178 3 20 22 22 90 4 113 -17 23 -52 39 -81 39 -25 0 -25 1 15
37 80 72 105 178 54 228 -13 14 -32 25 -42 25 -54 0 -102 -81 -103 -171 0 -44
-5 -60 -21 -75 -17 -16 -22 -16 -29 -4 -6 8 -10 18 -10 21 0 10 -50 29 -78 29
-15 0 -38 -7 -50 -16 -44 -30 -18 -128 44 -169 18 -12 23 -21 18 -33 -4 -9
-17 -43 -29 -75 l-21 -58 -24 52 c-24 51 -61 89 -86 89 -41 0 -76 -97 -55
-152 13 -36 80 -108 111 -122 25 -11 25 -12 16 -94 -8 -79 -9 -82 -30 -75 -28
10 -105 10 -133 0 -21 -8 -23 -5 -23 22 0 29 2 31 40 31 55 0 80 26 80 85 0
84 -63 112 -107 46 l-23 -34 -1 34 c0 19 -10 73 -23 122 l-22 87 36 0 c58 0
75 19 75 83 0 65 -22 97 -67 97 -20 0 -33 -8 -46 -28 -19 -31 -42 -32 -42 -1
0 11 -7 30 -16 43 -9 14 -11 27 -5 30 32 20 18 194 -20 235 -35 38 -108 21
-130 -30 -16 -39 2 -79 53 -123 48 -42 81 -126 48 -126 -22 0 -60 -45 -60 -72
0 -10 10 -29 23 -42 23 -23 23 -23 3 -32 -28 -12 -33 -60 -9 -86 15 -17 27
-19 74 -15 l56 5 12 -67 c12 -72 41 -295 41 -323 0 -14 -8 -18 -33 -18 -45 0
-77 -31 -77 -76 0 -29 6 -38 37 -57 l37 -21 -36 -9 c-20 -5 -54 -24 -75 -42
l-40 -34 -12 67 c-6 37 -23 109 -38 160 -14 51 -24 94 -22 96 2 1 28 17 56 35
61 38 110 90 119 127 8 33 -17 88 -51 110 -54 35 -95 -2 -136 -125 l-21 -63
-33 83 c-17 46 -35 91 -39 100 -5 12 3 18 33 27 57 17 91 62 91 119 0 25 -7
60 -16 79 -47 99 -148 81 -186 -32 l-13 -41 -75 85 c-52 58 -74 91 -72 106 2
11 6 38 9 59 3 20 2 52 -1 71 -6 33 -91 176 -105 176 -4 0 -14 -6 -23 -12z
m411 -415 c44 -55 39 -112 -12 -143 -39 -24 -73 -26 -81 -4 -16 43 -1 121 31
156 22 25 38 22 62 -9z m-156 -166 c-3 -44 -37 -101 -66 -111 -37 -13 -77 6
-77 37 0 49 74 110 125 104 15 -1 20 -9 18 -30z m993 -225 c3 -18 18 -47 34
-65 l29 -34 -43 -36 -44 -36 1 36 c1 44 -40 85 -104 104 -35 11 -48 10 -86 -3
l-45 -16 6 46 c15 107 12 103 58 86 70 -24 175 -13 180 20 1 6 3 -7 5 -29 2
-22 6 -55 9 -73z m-817 -149 c33 -121 63 -273 55 -273 -3 0 -24 13 -47 29 -89
60 -142 75 -188 51 -12 -7 -19 -7 -19 -1 0 5 25 17 55 26 58 16 95 44 95 70 0
9 -12 28 -26 42 l-26 26 38 33 c22 18 42 33 46 34 4 0 12 -17 17 -37z m733
-79 c-23 -28 -29 -31 -69 -26 -33 3 -48 0 -63 -13 -27 -24 -27 -79 0 -98 20
-14 20 -17 6 -48 -8 -19 -18 -47 -22 -64 -7 -25 -9 -19 -15 40 -3 39 -7 108
-8 155 l-1 85 98 0 99 0 -25 -31z m-232 -68 l0 -83 -25 5 c-31 6 -72 -20 -78
-50 -3 -17 -5 -14 -6 10 0 17 -10 41 -20 51 -15 15 -19 32 -18 70 2 49 3 51
32 52 23 0 82 15 113 28 1 1 2 -37 2 -83z m-582 -95 c44 -22 146 -111 137
-119 -11 -12 -101 0 -142 18 -45 20 -81 74 -70 104 8 21 30 20 75 -3z m395 7
c59 -28 8 -128 -65 -128 -36 0 -118 34 -118 48 0 21 66 66 119 83 36 10 34 10
64 -3z m407 -68 c26 -49 -18 -113 -94 -135 -63 -19 -59 -20 -51 13 10 42 52
101 88 122 40 25 44 25 57 0z m-319 -45 c9 -34 24 -56 60 -89 74 -67 68 -76
-47 -76 l-96 0 7 28 c4 15 10 47 14 72 5 36 38 110 48 110 2 0 8 -20 14 -45z
m-149 -45 l50 0 -7 -36 c-15 -82 -17 -84 -94 -84 -79 0 -81 3 -81 97 l0 52 41
-14 c23 -8 64 -15 91 -15z m738 -295 l0 -125 -730 0 -730 0 0 125 0 125 730 0
730 0 0 -125z m-90 -171 c0 -13 -151 -1080 -155 -1101 l-5 -23 -460 0 -460 0
-5 23 c-3 12 -43 256 -90 542 -46 286 -86 530 -88 543 l-4 22 633 0 c349 0
634 -3 634 -6z"/>
<path d="M2755 7248 c-2 -7 -6 -33 -10 -58 -3 -25 -32 -123 -65 -218 -33 -96
-62 -196 -66 -223 -4 -27 -10 -49 -15 -49 -14 0 -59 158 -59 207 0 26 7 73 17
106 14 50 14 60 2 68 -8 5 -18 9 -24 9 -17 0 -111 -109 -146 -170 -19 -33 -36
-59 -39 -60 -5 0 -97 145 -120 189 -6 13 -15 44 -19 70 -10 71 -36 68 -88 -12
-66 -100 -104 -234 -115 -410 l-3 -38 -38 57 c-20 32 -45 79 -55 106 -17 50
-46 65 -56 31 -81 -278 -106 -380 -113 -472 -10 -129 35 -301 106 -406 l30
-45 -44 0 -45 0 0 -175 0 -175 49 0 c42 0 50 -3 54 -22 3 -13 47 -276 98 -585
l92 -563 503 0 c426 0 504 2 504 14 0 8 36 270 80 583 44 312 80 569 80 571 0
1 20 2 45 2 l45 0 0 175 0 175 -56 0 -56 0 37 43 c46 53 97 161 121 252 30
116 21 365 -13 365 -5 0 -25 -34 -47 -75 -21 -42 -40 -75 -42 -73 -1 2 2 25 8
52 16 77 -4 171 -69 321 -31 72 -66 164 -79 205 -15 54 -26 75 -38 75 -14 0
-87 -140 -153 -295 -8 -19 -12 -21 -16 -10 -76 202 -120 339 -130 398 -9 58
-15 72 -30 72 -10 0 -19 -6 -22 -12z m-515 -282 c23 -37 51 -89 61 -117 l20
-51 -26 -75 c-14 -41 -32 -112 -38 -159 l-12 -85 -28 56 c-42 86 -75 73 -78
-30 0 -38 -17 -96 -18 -66 -1 8 -19 53 -42 99 -23 47 -37 87 -31 91 5 3 12 51
15 106 7 114 33 219 79 308 l31 62 12 -36 c7 -20 32 -66 55 -103z m641 -171
c22 -78 28 -156 17 -213 -5 -31 -12 -70 -15 -85 -5 -24 -2 -28 13 -25 27 5 53
90 54 175 0 66 3 77 34 120 39 55 84 138 110 203 l18 45 21 -40 c99 -193 137
-385 105 -525 -10 -42 -9 -53 2 -60 10 -6 2 -24 -35 -77 -45 -62 -136 -177
-193 -242 l-23 -26 14 30 c27 56 56 164 87 323 16 87 30 163 30 169 0 43 -88
-7 -189 -107 -65 -65 -108 -123 -152 -203 l-26 -48 -6 61 c-10 92 -33 172 -83
282 l-45 100 46 131 c26 73 61 173 78 223 l32 90 47 -130 c27 -72 53 -149 59
-171z m-372 -10 c7 -22 41 -103 76 -180 117 -261 133 -356 95 -557 l-22 -118
-67 1 -66 0 -53 62 c-106 124 -156 266 -155 437 1 159 46 316 131 455 l37 60
6 -60 c3 -33 11 -78 18 -100z m-539 -185 c67 -106 93 -162 128 -270 55 -174
63 -280 28 -365 l-15 -35 -81 0 c-96 0 -100 3 -158 110 -75 139 -102 270 -82
392 11 64 74 290 87 311 3 5 14 -9 25 -30 11 -21 41 -72 68 -113z m1060 -246
c-35 -165 -51 -211 -118 -336 l-46 -88 -73 0 -72 0 6 33 c29 156 80 272 168
387 42 55 155 163 163 155 2 -1 -11 -70 -28 -151z m344 26 c-7 -90 -46 -230
-79 -285 -27 -46 -82 -100 -140 -139 -35 -23 -50 -26 -124 -26 -98 0 -101 -12
32 135 122 136 210 255 259 355 39 77 44 83 51 60 4 -14 5 -59 1 -100z m-1140
21 c7 -9 16 -43 20 -76 13 -120 74 -255 162 -362 l27 -33 -133 0 c-122 0 -132
1 -124 18 15 34 16 179 1 253 -9 50 -13 110 -9 183 l4 110 19 -39 c10 -21 25
-45 33 -54z m1066 -646 l0 -125 -730 0 -730 0 0 125 0 125 730 0 730 0 0 -125z
m-100 -182 c-1 -10 -36 -263 -78 -563 l-77 -545 -463 -3 c-368 -2 -462 0 -462
11 0 7 -40 259 -90 560 -49 301 -90 550 -90 552 0 3 284 5 630 5 594 0 630 -1
630 -17z"/>
<path d="M5345 6934 c-46 -24 -73 -53 -101 -110 l-25 -52 -42 42 c-42 42 -98
66 -153 66 -57 0 -146 -61 -182 -126 -8 -14 -16 -9 -58 36 -75 80 -133 101
-173 61 -23 -23 -36 -80 -27 -117 12 -48 134 -164 176 -167 17 -1 19 -7 14
-37 -2 -19 -1 -65 4 -102 l8 -67 -30 17 c-20 10 -56 16 -98 17 -58 0 -72 -4
-109 -30 -58 -41 -89 -102 -89 -177 0 -100 45 -178 133 -228 l52 -30 -117 0
-118 0 0 -175 0 -175 53 0 53 0 95 -582 96 -583 500 -3 501 -2 5 22 c3 13 40
276 83 586 l79 562 47 0 48 0 0 175 0 175 -102 0 -103 0 35 17 c51 25 127 107
161 174 87 173 70 369 -38 458 -34 28 -36 32 -21 48 27 31 48 81 48 116 0 84
-127 117 -195 49 -24 -24 -27 -32 -23 -84 l4 -58 -31 0 c-131 0 -245 -103
-245 -222 0 -22 -7 -29 -37 -39 -21 -6 -51 -21 -66 -31 -16 -11 -29 -19 -31
-17 -1 2 -8 42 -14 89 l-11 85 53 47 c69 61 143 170 156 230 25 115 -66 194
-165 142z m109 -63 c41 -45 -2 -146 -107 -249 l-54 -54 -21 67 -20 66 23 60
c28 71 56 108 97 131 34 19 50 14 82 -21z m-354 -53 c80 -40 124 -128 155
-307 40 -228 4 -402 -110 -529 -46 -51 -48 -52 -104 -52 l-58 0 -36 78 c-45
94 -95 242 -89 260 2 7 -4 29 -14 50 -27 53 -27 265 -1 305 9 14 17 36 17 47
0 46 59 128 115 158 32 18 77 14 125 -10z m-360 -37 c59 -59 65 -79 47 -149
l-13 -53 -71 74 c-76 77 -93 113 -74 153 18 40 55 31 111 -25z m1061 -187 c40
-12 66 -28 100 -63 57 -59 73 -112 70 -228 l-1 -42 -35 6 c-31 5 -35 3 -35
-15 0 -22 32 -46 45 -34 13 12 -6 -41 -28 -78 -49 -85 -170 -180 -230 -180
-10 0 -20 -7 -23 -15 -4 -9 -19 -15 -42 -15 -33 0 -34 1 -20 18 9 9 28 41 43
70 25 47 30 52 62 52 19 0 43 5 54 10 38 21 61 98 43 145 -8 20 -56 45 -87 45
-19 0 -26 7 -30 28 -12 59 -81 112 -146 112 -28 0 -31 3 -31 30 0 86 99 167
206 169 17 1 55 -6 85 -15z m-226 -238 c47 -20 64 -52 71 -130 9 -113 -32
-214 -106 -264 -29 -20 -43 -23 -82 -18 -28 4 -49 2 -53 -4 -4 -6 -54 -10
-122 -10 l-115 0 32 37 c51 57 98 167 112 258 6 44 12 81 13 83 5 7 173 62
193 62 12 0 38 -6 57 -14z m-823 -36 c42 -28 48 -37 72 -115 15 -47 43 -122
62 -167 19 -46 38 -89 41 -95 7 -17 -202 -19 -212 -2 -4 6 -38 30 -76 54 -104
67 -142 140 -119 227 32 118 135 162 232 98z m1168 -565 l0 -125 -730 0 -730
0 0 125 0 125 730 0 730 0 0 -125z m-95 -197 c-3 -18 -37 -258 -75 -533 -38
-275 -72 -515 -75 -533 l-6 -32 -462 2 -461 3 -88 530 c-47 291 -89 544 -93
562 l-6 33 636 0 636 0 -6 -32z"/>
<path d="M5350 4048 c0 -7 -72 -205 -110 -302 -23 -60 -50 -140 -59 -178 -10
-37 -20 -70 -23 -73 -9 -9 -78 178 -108 290 -31 114 -51 131 -61 50 -7 -56
-28 -333 -38 -509 l-6 -116 -48 62 c-26 35 -79 103 -117 152 -48 62 -76 110
-91 153 -77 231 -124 -209 -53 -491 8 -32 13 -60 12 -62 -8 -7 -185 155 -212
195 -60 86 -79 26 -52 -158 28 -182 119 -411 214 -535 73 -97 81 -86 -62 -86
l-126 0 0 -175 0 -175 53 0 52 0 96 -582 95 -583 501 -3 501 -2 5 22 c3 13 41
276 84 585 l78 563 48 0 47 0 0 175 0 175 -147 0 -148 1 25 22 c115 102 179
258 182 442 2 136 -12 315 -26 315 -6 -1 -22 -16 -36 -34 l-25 -33 -2 111 c0
61 -4 166 -8 234 -6 107 -9 122 -25 122 -31 0 -120 -228 -120 -308 0 -14 -3
-23 -6 -19 -3 3 -9 86 -13 184 -8 225 -14 231 -92 76 l-54 -108 -7 115 c-8
141 -22 231 -56 378 -21 92 -29 112 -44 112 -10 0 -18 -1 -18 -2z m55 -368 c8
-85 20 -188 25 -229 8 -70 7 -78 -17 -125 -52 -102 -74 -179 -81 -271 -4 -66
-7 -82 -13 -60 -3 17 -14 64 -24 105 -9 41 -35 122 -57 180 -54 143 -51 189
27 395 31 83 67 179 78 214 l22 63 12 -58 c6 -33 19 -129 28 -214z m-277 -231
c44 -107 92 -232 105 -279 50 -173 77 -493 49 -586 -7 -23 -23 -58 -37 -78
-31 -46 -31 -56 -1 -56 31 0 72 48 87 103 7 23 13 92 14 152 2 61 7 142 14
180 6 39 11 92 11 118 0 108 27 196 112 365 63 126 84 159 91 146 5 -9 10
-156 10 -327 1 -254 -2 -326 -15 -387 -36 -164 -94 -264 -182 -310 -25 -14
-46 -31 -46 -37 0 -9 -22 -13 -75 -13 -46 0 -75 4 -75 11 0 6 -11 25 -24 42
-57 77 -121 233 -151 372 -31 141 -30 574 2 805 l6 45 12 -36 c7 -19 49 -123
93 -230z m-335 -126 c137 -175 147 -195 164 -331 26 -215 76 -373 156 -492
l37 -55 -76 -3 c-72 -3 -80 -1 -113 26 -80 64 -144 179 -190 339 -11 37 -31
108 -46 158 -44 149 -65 264 -72 391 -7 152 -1 175 32 116 13 -23 62 -90 108
-149z m965 -88 l9 -119 -34 -68 c-41 -84 -93 -214 -93 -233 0 -38 24 -4 83
118 35 72 78 155 96 182 l33 50 -5 -185 c-3 -158 -7 -194 -26 -245 -28 -77
-79 -154 -154 -232 l-60 -63 -96 0 -96 0 37 26 c114 81 171 253 184 549 5 106
11 152 20 158 7 4 18 33 24 65 6 31 20 100 32 152 l22 95 8 -65 c4 -36 11
-119 16 -185z m-1099 -304 c16 -21 43 -86 65 -156 45 -142 94 -240 147 -295
l39 -40 -104 0 -104 0 -13 31 c-7 18 -35 68 -62 113 -109 179 -164 311 -192
459 -25 130 -27 130 91 21 58 -53 117 -114 133 -133z m1261 -666 l0 -125 -730
0 -730 0 0 125 0 125 730 0 730 0 0 -125z m-96 -192 c-4 -18 -154 -1088 -154
-1098 0 -3 -207 -5 -460 -5 l-460 0 -5 23 c-10 43 -175 1060 -175 1078 0 18
20 19 629 19 594 0 629 -1 625 -17z"/>
<path d="M7175 3892 c-76 -48 -130 -140 -214 -365 -28 -77 -63 -161 -77 -188
-13 -28 -22 -54 -19 -59 9 -15 45 -12 51 4 11 28 81 65 197 104 122 42 175 73
209 126 l20 31 -6 -64 c-3 -35 -6 -148 -6 -251 l0 -187 -48 24 c-91 45 -143
10 -240 -162 -62 -109 -115 -175 -141 -175 -25 0 -81 -38 -81 -55 0 -20 49
-20 78 1 25 17 39 18 188 14 121 -3 153 9 219 82 l45 50 2 -68 c2 -38 3 -98 4
-134 0 -36 4 -91 8 -122 l8 -58 -281 0 -281 0 0 -175 0 -175 55 0 c30 0 55 -4
55 -10 0 -12 178 -1106 185 -1137 l5 -23 500 0 500 0 5 23 c3 12 39 265 80
562 41 297 77 550 80 562 5 20 12 23 50 23 l45 0 0 175 0 175 -50 0 c-43 0
-50 3 -50 19 0 31 -36 105 -69 143 -46 53 -93 71 -193 78 l-88 5 15 29 c23 44
19 114 -11 174 -31 62 -88 113 -166 150 -49 24 -57 31 -62 62 -9 56 -7 140 4
140 5 0 30 -19 54 -42 31 -30 46 -55 51 -81 6 -31 11 -38 29 -35 20 3 21 8 18
78 -8 208 -74 327 -217 394 -65 31 -154 49 -199 40 l-36 -6 1 123 c1 148 -7
174 -60 183 -104 18 -136 17 -166 -2z m143 -45 c9 -9 16 -42 19 -84 5 -60 2
-76 -22 -126 -29 -63 -113 -160 -156 -183 -35 -18 -192 -74 -196 -70 -6 5 93
270 122 326 59 117 113 164 179 156 21 -2 45 -11 54 -19z m272 -328 c107 -47
165 -110 195 -213 9 -32 15 -60 12 -62 -2 -3 -20 4 -39 16 -19 11 -79 38 -133
60 -119 49 -161 79 -187 137 -16 37 -17 47 -7 60 31 37 77 37 159 2z m-106
-188 c20 -13 62 -33 94 -45 40 -15 58 -28 60 -42 3 -19 -2 -20 -64 -16 -84 6
-122 -12 -164 -76 l-30 -45 0 124 c0 68 3 141 6 161 l7 38 27 -39 c16 -21 44
-48 64 -60z m-191 -321 l47 -29 -20 -48 c-66 -159 -123 -203 -265 -203 -47 0
-85 2 -85 5 0 3 9 18 19 33 11 15 44 68 75 118 64 104 113 154 154 154 16 0
49 -13 75 -30z m428 -12 c31 -14 73 -42 94 -63 39 -39 85 -125 85 -159 0 -18
-3 -17 -27 6 -43 41 -77 50 -220 58 -146 9 -195 25 -218 71 -19 36 -19 34 8
60 67 64 174 75 278 27z m-284 -150 c31 -29 88 -47 162 -54 l71 -7 0 -48 0
-49 -37 20 c-55 29 -130 27 -173 -5 -19 -14 -37 -31 -42 -37 -4 -7 -8 14 -8
48 0 34 -2 90 -5 125 -4 42 -2 57 4 44 5 -11 17 -28 28 -37z m180 -183 c28
-19 28 -20 0 -70 -20 -35 -27 -40 -57 -39 -19 1 -58 10 -87 21 l-52 19 27 32
c53 61 112 74 169 37z m490 -58 c38 -20 76 -67 99 -123 l16 -39 -29 26 c-47
44 -72 52 -215 65 -136 13 -165 21 -202 53 -17 15 -15 17 45 28 89 16 245 11
286 -10z m-418 -124 l1 -43 -135 0 -135 0 0 55 0 54 53 -24 c74 -35 127 -33
166 6 17 17 32 36 32 42 3 24 17 -49 18 -90z m113 34 c18 -9 86 -23 150 -31
64 -8 131 -22 150 -30 30 -13 18 -14 -158 -15 l-191 -1 -7 53 c-3 28 -6 61 -6
72 1 17 3 16 15 -6 8 -15 29 -33 47 -42z m372 -143 c3 -9 6 -35 6 -59 0 -24 4
-46 9 -50 17 -10 69 51 76 89 6 29 12 36 31 36 l24 0 0 -125 0 -125 -730 0
-730 0 0 125 0 125 654 0 c587 0 654 -2 660 -16z m52 -316 c-3 -18 -37 -260
-76 -538 -39 -278 -73 -517 -76 -532 l-6 -28 -459 0 c-252 0 -459 1 -459 3 0
1 -42 255 -93 565 l-93 562 634 0 634 0 -6 -32z"/>
<path d="M7800 3871 c-14 -5 -40 -15 -57 -24 -39 -21 -43 -21 -43 -2 0 8 -7
15 -15 15 -12 0 -15 -17 -15 -92 l0 -92 -29 46 c-34 53 -78 87 -125 95 -27 4
-39 0 -66 -24 -34 -31 -34 -59 0 -48 13 4 29 -5 52 -31 18 -20 61 -57 96 -82
34 -25 62 -52 62 -59 0 -17 51 -13 58 5 2 7 0 18 -7 25 -6 6 -11 42 -11 82 l0
70 18 -30 c25 -40 87 -94 129 -112 19 -7 82 -22 140 -33 124 -22 170 -48 197
-109 14 -30 25 -41 41 -41 34 0 36 20 11 92 -60 170 -169 303 -283 344 -41 14
-113 17 -153 5z m127 -54 c59 -22 119 -74 165 -143 26 -38 45 -70 43 -72 -5
-6 -189 29 -237 44 -83 27 -186 120 -160 146 32 32 132 46 189 25z"/>
<path d="M2443 3473 c-10 -85 -10 -314 0 -458 l7 -110 -43 80 c-24 44 -79 134
-122 200 -42 66 -84 130 -91 143 -15 23 -38 29 -49 12 -9 -15 34 -104 105
-216 112 -176 152 -248 177 -313 13 -35 22 -67 21 -72 -2 -5 -30 28 -63 73
-77 106 -258 290 -310 316 -53 26 -103 34 -142 23 -23 -7 -49 -5 -90 6 -103
28 -313 20 -313 -11 0 -10 29 -15 118 -18 96 -4 134 -11 211 -37 198 -67 379
-206 513 -396 74 -105 72 -110 -10 -32 -199 188 -446 300 -694 314 -93 6 -98
5 -98 -14 0 -18 12 -22 106 -37 59 -9 142 -26 185 -38 l79 -21 -53 -18 c-56
-19 -120 -80 -110 -105 9 -23 33 -16 74 20 46 42 96 54 158 37 53 -14 139 -66
196 -116 45 -41 51 -41 -90 -3 -60 16 -110 22 -200 22 -112 1 -124 -1 -183
-28 -191 -88 -260 -346 -177 -671 26 -104 46 -138 66 -118 9 9 6 45 -10 146
-11 74 -21 151 -21 171 0 46 45 137 99 198 41 46 145 108 183 108 17 0 16 -3
-8 -35 -17 -22 -35 -35 -49 -35 -22 0 -24 -5 -28 -67 -2 -38 -12 -106 -21
-152 -9 -47 -17 -137 -19 -200 -2 -110 -1 -116 18 -116 17 0 21 11 32 80 6 44
12 86 12 93 1 7 16 12 40 12 32 0 40 -4 44 -22 3 -13 47 -276 98 -585 l92
-563 503 0 c398 0 504 3 504 13 0 6 36 268 80 581 44 313 80 571 80 573 0 2
20 3 45 3 42 0 44 -1 55 -37 22 -80 40 -208 46 -338 4 -75 11 -138 16 -141 5
-3 16 0 25 7 13 12 15 37 10 184 -6 186 -22 275 -78 413 -21 54 -29 89 -27
121 l3 46 34 -88 c29 -74 38 -87 55 -85 18 3 21 9 18 43 -16 203 -180 413
-377 480 -63 21 -201 22 -270 1 l-50 -15 25 19 c14 11 49 32 77 46 50 25 59
26 170 22 95 -3 133 -10 197 -32 197 -68 372 -221 447 -392 20 -43 45 -57 55
-31 7 20 -33 123 -72 184 -98 154 -267 266 -462 306 -41 9 -77 19 -80 23 -4 3
34 4 85 2 51 -3 93 -2 95 3 2 5 37 -14 78 -41 81 -54 110 -62 110 -31 0 13
-29 42 -82 82 -89 67 -154 101 -232 120 l-49 12 37 19 c37 19 47 42 22 51 -8
3 -52 -12 -98 -33 -45 -21 -112 -46 -147 -56 -117 -33 -226 -120 -308 -246
-24 -38 -45 -68 -47 -68 -11 0 37 168 60 211 77 141 200 232 477 352 81 36 15
50 -97 21 -127 -33 -277 -137 -358 -249 -24 -33 -28 -35 -24 -15 14 56 56 296
56 316 0 14 -8 24 -22 28 -29 7 -46 -14 -92 -109 -40 -83 -63 -182 -74 -320
l-8 -100 -10 160 c-10 178 -11 538 0 578 5 22 3 27 -13 27 -16 0 -21 -10 -28
-67z m-317 -858 c53 -14 99 -26 101 -28 2 -2 -27 -4 -64 -4 -38 1 -130 -4
-205 -10 -123 -9 -145 -14 -203 -42 -42 -21 -80 -50 -110 -84 l-46 -52 16 45
c38 109 97 172 183 197 65 18 207 9 328 -22z m981 -14 c43 -21 85 -52 126 -93
l62 -63 -39 -3 c-35 -3 -43 2 -100 56 -34 33 -91 79 -127 102 l-64 43 39 -6
c21 -3 67 -20 103 -36z m-163 -10 c35 -17 92 -58 127 -90 l64 -60 -39 -1 c-32
0 -47 8 -93 51 -70 63 -141 99 -211 106 -54 6 -54 6 -26 19 42 20 106 11 178
-25z m-79 -71 c34 -16 71 -41 85 -55 l23 -25 -66 0 c-58 0 -72 4 -109 30 -26
18 -68 35 -105 43 -34 7 -65 15 -68 19 -12 12 79 27 130 22 28 -2 77 -18 110
-34z m-729 -15 c84 -9 94 -17 51 -44 -30 -18 -49 -21 -147 -21 -111 0 -113 0
-95 19 23 26 96 62 115 57 8 -3 42 -7 76 -11z m-52 -179 c-19 -39 -35 -88 -39
-125 l-7 -61 -104 0 -104 0 0 38 c0 45 24 141 45 183 l16 29 113 0 113 0 -33
-64z m163 2 c-25 -35 -59 -91 -76 -125 -24 -48 -36 -63 -53 -63 -19 0 -20 4
-14 56 7 65 27 115 62 161 22 30 30 33 75 33 l50 0 -44 -62z m283 35 c21 -47
40 -105 55 -165 l13 -58 -144 0 c-164 0 -155 -7 -129 95 9 33 30 81 47 107
l30 48 57 0 c53 0 59 -2 71 -27z m208 -30 c29 -55 62 -151 62 -180 0 -10 -21
-13 -83 -13 l-83 0 -13 53 c-11 43 -31 97 -68 185 -4 9 15 12 75 12 l79 0 31
-57z m315 25 c36 -49 64 -99 92 -161 l25 -57 -98 0 -97 0 -27 84 c-14 46 -38
102 -52 125 l-26 41 79 0 c79 0 80 -1 104 -32z m159 0 c50 -65 88 -144 88
-181 l0 -37 -46 0 c-38 0 -47 4 -51 20 -8 31 -71 159 -93 190 -11 16 -20 31
-20 34 0 3 22 6 49 6 43 0 51 -4 73 -32z m-1168 -284 c3 -9 6 -27 6 -40 0 -13
9 -66 21 -117 11 -50 27 -121 35 -157 17 -77 71 -193 87 -187 7 2 10 13 9 23
-2 10 -5 39 -7 64 -1 25 -14 91 -29 147 -29 111 -32 156 -15 233 l11 50 43 0
44 0 5 -42 c25 -224 48 -317 111 -456 32 -69 57 -95 75 -76 4 5 -14 75 -42
157 -49 147 -88 316 -88 383 l0 35 148 -3 147 -3 3 -105 c4 -127 -10 -249 -49
-434 -33 -158 -34 -166 -16 -166 28 0 89 207 108 371 11 98 7 286 -7 323 -5
14 5 16 79 16 l86 0 7 -36 c6 -30 1 -217 -9 -383 -1 -19 3 -36 10 -38 28 -10
58 202 50 355 l-5 103 32 -3 31 -3 3 -102 c2 -94 -7 -161 -45 -320 -10 -44 18
-23 42 30 34 74 55 191 55 302 l0 95 104 0 c103 0 104 0 108 -25 5 -22 -135
-1060 -147 -1092 -3 -10 -104 -13 -459 -13 -257 0 -457 4 -460 9 -5 8 -186
1092 -186 1113 0 5 22 8 49 8 35 0 51 -4 55 -16z"/>
<path d="M4900 314 c0 -32 32 -209 40 -217 4 -4 19 -5 34 -1 20 5 35 21 56 63
l28 56 -5 -41 c-7 -57 23 -89 76 -80 20 3 42 14 49 25 13 18 14 18 38 -6 20
-20 31 -24 57 -19 38 8 62 29 54 49 -4 10 -13 13 -27 10 -25 -7 -40 10 -33 38
5 19 33 27 33 9 0 -16 30 -12 36 5 4 8 10 15 16 15 6 0 7 -22 3 -55 -7 -52 -6
-55 19 -66 20 -9 32 -9 51 -1 28 13 35 52 9 52 -11 0 -14 5 -10 16 3 9 6 24 6
34 0 10 9 20 20 23 23 6 27 37 5 37 -8 0 -15 9 -15 20 0 32 -33 24 -68 -16
-18 -20 -32 -31 -32 -25 0 6 -11 16 -25 21 -31 12 -87 -8 -104 -37 -9 -16 -10
-16 -11 -1 0 25 -39 48 -69 41 -14 -3 -37 -15 -50 -27 l-23 -21 21 42 c30 60
28 73 -13 73 -32 0 -35 -3 -52 -50 -10 -27 -21 -50 -25 -50 -5 0 -9 21 -11 48
-3 47 -3 47 -40 50 -30 3 -38 0 -38 -14z"/>
<path d="M5515 256 c-35 -15 -55 -52 -55 -101 0 -56 59 -83 108 -49 12 8 22
24 22 34 0 16 -5 19 -32 15 l-33 -5 35 13 c35 14 35 14 42 -17 11 -50 48 -67
104 -46 19 8 30 7 41 -1 9 -9 17 -9 24 -2 7 7 20 7 40 0 37 -14 64 0 64 34 0
19 -5 23 -23 21 -23 -2 -23 -2 7 40 53 71 45 78 -81 69 -13 -1 -18 -10 -18
-32 0 -27 3 -31 20 -26 18 5 17 1 -7 -28 -16 -18 -32 -29 -37 -24 -5 4 -23 6
-40 3 l-31 -4 30 11 c43 17 55 28 55 55 0 51 -70 64 -116 22 -21 -18 -21 -18
-35 1 -19 26 -48 32 -84 17z"/>
<path d="M5929 262 c-23 -3 -27 -9 -33 -49 -11 -81 -8 -111 13 -118 10 -3 26
-2 36 1 13 5 16 4 10 -5 -4 -8 -21 -11 -41 -9 -36 4 -53 -14 -34 -37 28 -34
102 -25 132 16 20 26 52 189 40 200 -4 4 -19 5 -34 2 -22 -4 -29 -12 -34 -42
-11 -60 -26 -72 -19 -15 7 56 4 61 -36 56z"/>
<path d="M3630 180 l0 -80 50 0 c37 0 55 5 71 21 l21 21 14 -21 c18 -25 66
-28 84 -6 11 13 14 13 27 0 22 -22 80 -19 93 4 12 24 4 48 -18 54 -15 4 -15 5
1 6 38 2 7 41 -33 41 -46 0 -71 -52 -32 -68 11 -4 1 -9 -33 -13 -27 -3 -54 -2
-59 2 -6 5 5 9 27 9 33 0 37 3 37 25 0 45 -67 61 -94 23 l-16 -22 0 21 c0 33
-46 63 -96 63 l-44 0 0 -80z"/>
<path d="M4010 180 c0 -73 2 -80 20 -80 15 0 20 7 20 28 l0 27 13 -25 c8 -15
10 -28 4 -31 -22 -15 3 -39 41 -39 53 0 62 13 62 93 l0 68 -47 -3 c-39 -2 -50
-7 -60 -28 -12 -24 -13 -22 -13 23 0 40 -3 47 -20 47 -18 0 -20 -7 -20 -80z"/>
<path d="M4600 179 l0 -80 48 3 c42 3 49 7 63 36 l17 33 11 -33 c10 -27 9 -35
-4 -44 -23 -17 -18 -34 9 -34 29 0 38 11 61 72 9 26 23 49 31 52 17 7 18 33 2
39 -26 8 -47 -6 -54 -37 l-7 -31 -14 33 c-9 21 -20 32 -34 32 -16 0 -19 -4
-14 -22 l7 -23 -17 23 c-9 12 -27 22 -41 22 -17 0 -24 5 -24 20 0 13 -7 20
-20 20 -18 0 -20 -7 -20 -81z"/>
</g>
</svg>
